<?xml version="1.0" encoding="UTF-8" standalone="no"?>
<!DOCTYPE svg PUBLIC "-//W3C//DTD SVG 1.1//EN"
 "http://www.w3.org/Graphics/SVG/1.1/DTD/svg11.dtd">
<!-- Generated by graphviz version 14.1.5 (20260411.2331)
 -->
<!-- Title: hex_skills Pages: 1 -->
<svg width="2557pt" height="535pt"
 viewBox="0.00 0.00 2557.00 535.00" xmlns="http://www.w3.org/2000/svg" xmlns:xlink="http://www.w3.org/1999/xlink">
<g id="graph0" class="graph" transform="scale(1 1) rotate(0) translate(36 499.25)">
<title>hex_skills</title>
<polygon fill="white" stroke="none" points="-36,36 -36,-499.25 2521.3,-499.25 2521.3,36 -36,36"/>
<g id="clust1" class="cluster">
<title>cluster_legend</title>
<path fill="white" stroke="#cccccc" d="M2343.3,-8C2343.3,-8 2465.3,-8 2465.3,-8 2471.3,-8 2477.3,-14 2477.3,-20 2477.3,-20 2477.3,-443.25 2477.3,-443.25 2477.3,-449.25 2471.3,-455.25 2465.3,-455.25 2465.3,-455.25 2343.3,-455.25 2343.3,-455.25 2337.3,-455.25 2331.3,-449.25 2331.3,-443.25 2331.3,-443.25 2331.3,-20 2331.3,-20 2331.3,-14 2337.3,-8 2343.3,-8"/>
<text xml:space="preserve" text-anchor="middle" x="2404.3" y="-441.75" font-family="Helvetica,sans-Serif" font-size="10.00">Legend</text>
</g>
<!-- hex&#45;startup -->
<g id="node1" class="node">
<title>hex&#45;startup</title>
<path fill="#b8e6c8" stroke="black" d="M86.3,-334C86.3,-334 40.3,-334 40.3,-334 34.3,-334 28.3,-328 28.3,-322 28.3,-322 28.3,-310 28.3,-310 28.3,-304 34.3,-298 40.3,-298 40.3,-298 86.3,-298 86.3,-298 92.3,-298 98.3,-304 98.3,-310 98.3,-310 98.3,-322 98.3,-322 98.3,-328 92.3,-334 86.3,-334"/>
<text xml:space="preserve" text-anchor="middle" x="63.3" y="-311.55" font-family="Helvetica,sans-Serif" font-size="11.00">hex&#45;startup</text>
</g>
<!-- memory -->
<g id="node6" class="node">
<title>memory</title>
<path fill="#99ccff" stroke="black" stroke-width="2" d="M440.8,-146C440.8,-146 409.8,-146 409.8,-146 403.8,-146 397.8,-140 397.8,-134 397.8,-134 397.8,-122 397.8,-122 397.8,-116 403.8,-110 409.8,-110 409.8,-110 440.8,-110 440.8,-110 446.8,-110 452.8,-116 452.8,-122 452.8,-122 452.8,-134 452.8,-134 452.8,-140 446.8,-146 440.8,-146"/>
<text xml:space="preserve" text-anchor="middle" x="425.3" y="-123.55" font-family="Helvetica,sans-Serif" font-size="11.00">memory</text>
</g>
<!-- hex&#45;startup&#45;&gt;memory -->
<g id="edge3" class="edge">
<title>hex&#45;startup&#45;&gt;memory</title>
<path fill="none" stroke="#666666" d="M43.43,-297.76C19.12,-274.61 -15.98,-233.04 8.3,-204 56.27,-146.64 291.04,-133.08 385.67,-129.93"/>
<polygon fill="#666666" stroke="#666666" points="385.61,-133.44 395.5,-129.63 385.4,-126.44 385.61,-133.44"/>
</g>
<!-- hex&#45;doctor -->
<g id="node7" class="node">
<title>hex&#45;doctor</title>
<path fill="#99ccff" stroke="black" d="M84.8,-240C84.8,-240 41.8,-240 41.8,-240 35.8,-240 29.8,-234 29.8,-228 29.8,-228 29.8,-216 29.8,-216 29.8,-210 35.8,-204 41.8,-204 41.8,-204 84.8,-204 84.8,-204 90.8,-204 96.8,-210 96.8,-216 96.8,-216 96.8,-228 96.8,-228 96.8,-234 90.8,-240 84.8,-240"/>
<text xml:space="preserve" text-anchor="middle" x="63.3" y="-217.55" font-family="Helvetica,sans-Serif" font-size="11.00">hex&#45;doctor</text>
</g>
<!-- hex&#45;startup&#45;&gt;hex&#45;doctor -->
<g id="edge1" class="edge">
<title>hex&#45;startup&#45;&gt;hex&#45;doctor</title>
<path fill="none" stroke="#666666" d="M63.3,-297.7C63.3,-284.72 63.3,-266.66 63.3,-251.56"/>
<polygon fill="#666666" stroke="#666666" points="66.8,-251.74 63.3,-241.74 59.8,-251.74 66.8,-251.74"/>
</g>
<!-- hex&#45;triage -->
<g id="node13" class="node">
<title>hex&#45;triage</title>
<path fill="#d4c5f9" stroke="black" d="M192.3,-240C192.3,-240 152.3,-240 152.3,-240 146.3,-240 140.3,-234 140.3,-228 140.3,-228 140.3,-216 140.3,-216 140.3,-210 146.3,-204 152.3,-204 152.3,-204 192.3,-204 192.3,-204 198.3,-204 204.3,-210 204.3,-216 204.3,-216 204.3,-228 204.3,-228 204.3,-234 198.3,-240 192.3,-240"/>
<text xml:space="preserve" text-anchor="middle" x="172.3" y="-217.55" font-family="Helvetica,sans-Serif" font-size="11.00">hex&#45;triage</text>
</g>
<!-- hex&#45;startup&#45;&gt;hex&#45;triage -->
<g id="edge2" class="edge">
<title>hex&#45;startup&#45;&gt;hex&#45;triage</title>
<path fill="none" stroke="#666666" d="M83.8,-297.7C100.55,-283.56 124.43,-263.41 143.16,-247.59"/>
<polygon fill="#666666" stroke="#666666" points="145.35,-250.33 150.73,-241.2 140.83,-244.98 145.35,-250.33"/>
</g>
<!-- hex&#45;shutdown -->
<g id="node2" class="node">
<title>hex&#45;shutdown</title>
<path fill="#b8e6c8" stroke="black" d="M359.05,-428C359.05,-428 299.55,-428 299.55,-428 293.55,-428 287.55,-422 287.55,-416 287.55,-416 287.55,-404 287.55,-404 287.55,-398 293.55,-392 299.55,-392 299.55,-392 359.05,-392 359.05,-392 365.05,-392 371.05,-398 371.05,-404 371.05,-404 371.05,-416 371.05,-416 371.05,-422 365.05,-428 359.05,-428"/>
<text xml:space="preserve" text-anchor="middle" x="329.3" y="-405.55" font-family="Helvetica,sans-Serif" font-size="11.00">hex&#45;shutdown</text>
</g>
<!-- hex&#45;checkpoint -->
<g id="node3" class="node">
<title>hex&#45;checkpoint</title>
<path fill="#b8e6c8" stroke="black" d="M361.3,-334C361.3,-334 297.3,-334 297.3,-334 291.3,-334 285.3,-328 285.3,-322 285.3,-322 285.3,-310 285.3,-310 285.3,-304 291.3,-298 297.3,-298 297.3,-298 361.3,-298 361.3,-298 367.3,-298 373.3,-304 373.3,-310 373.3,-310 373.3,-322 373.3,-322 373.3,-328 367.3,-334 361.3,-334"/>
<text xml:space="preserve" text-anchor="middle" x="329.3" y="-311.55" font-family="Helvetica,sans-Serif" font-size="11.00">hex&#45;checkpoint</text>
</g>
<!-- hex&#45;shutdown&#45;&gt;hex&#45;checkpoint -->
<g id="edge4" class="edge">
<title>hex&#45;shutdown&#45;&gt;hex&#45;checkpoint</title>
<path fill="none" stroke="#666666" d="M329.3,-391.7C329.3,-378.72 329.3,-360.66 329.3,-345.56"/>
<polygon fill="#666666" stroke="#666666" points="332.8,-345.74 329.3,-335.74 325.8,-345.74 332.8,-345.74"/>
</g>
<!-- hex&#45;reflect -->
<g id="node4" class="node">
<title>hex&#45;reflect</title>
<path fill="#b8e6c8" stroke="black" d="M301.43,-240C301.43,-240 259.18,-240 259.18,-240 253.18,-240 247.18,-234 247.18,-228 247.18,-228 247.18,-216 247.18,-216 247.18,-210 253.18,-204 259.18,-204 259.18,-204 301.43,-204 301.43,-204 307.43,-204 313.43,-210 313.43,-216 313.43,-216 313.43,-228 313.43,-228 313.43,-234 307.43,-240 301.43,-240"/>
<text xml:space="preserve" text-anchor="middle" x="280.3" y="-217.55" font-family="Helvetica,sans-Serif" font-size="11.00">hex&#45;reflect</text>
</g>
<!-- hex&#45;checkpoint&#45;&gt;hex&#45;reflect -->
<g id="edge6" class="edge">
<title>hex&#45;checkpoint&#45;&gt;hex&#45;reflect</title>
<path fill="none" stroke="#666666" d="M320.08,-297.7C312.97,-284.33 302.98,-265.59 294.8,-250.22"/>
<polygon fill="#666666" stroke="#666666" points="297.98,-248.74 290.19,-241.56 291.8,-252.03 297.98,-248.74"/>
</g>
<!-- hex&#45;checkpoint&#45;&gt;memory -->
<g id="edge5" class="edge">
<title>hex&#45;checkpoint&#45;&gt;memory</title>
<path fill="none" stroke="#666666" d="M338.33,-297.5C355.01,-265.18 390.78,-195.88 410.86,-156.97"/>
<polygon fill="#666666" stroke="#666666" points="413.91,-158.7 415.39,-148.21 407.69,-155.49 413.91,-158.7"/>
</g>
<!-- hex&#45;reflect&#45;&gt;memory -->
<g id="edge7" class="edge">
<title>hex&#45;reflect&#45;&gt;memory</title>
<path fill="none" stroke="#666666" d="M307.57,-203.7C330.17,-189.36 362.53,-168.83 387.6,-152.92"/>
<polygon fill="#666666" stroke="#666666" points="389.31,-155.98 395.88,-147.67 385.56,-150.07 389.31,-155.98"/>
</g>
<!-- hex&#45;save -->
<g id="node5" class="node">
<title>hex&#45;save</title>
<path fill="#b8e6c8" stroke="black" d="M491.05,-240C491.05,-240 455.55,-240 455.55,-240 449.55,-240 443.55,-234 443.55,-228 443.55,-228 443.55,-216 443.55,-216 443.55,-210 449.55,-204 455.55,-204 455.55,-204 491.05,-204 491.05,-204 497.05,-204 503.05,-210 503.05,-216 503.05,-216 503.05,-228 503.05,-228 503.05,-234 497.05,-240 491.05,-240"/>
<text xml:space="preserve" text-anchor="middle" x="473.3" y="-217.55" font-family="Helvetica,sans-Serif" font-size="11.00">hex&#45;save</text>
</g>
<!-- hex&#45;save&#45;&gt;memory -->
<g id="edge8" class="edge">
<title>hex&#45;save&#45;&gt;memory</title>
<path fill="none" stroke="#666666" d="M464.27,-203.7C457.39,-190.5 447.77,-172.06 439.81,-156.8"/>
<polygon fill="#666666" stroke="#666666" points="443.05,-155.44 435.32,-148.2 436.84,-158.68 443.05,-155.44"/>
</g>
<!-- hex&#45;doctor&#45;&gt;memory -->
<g id="edge9" class="edge">
<title>hex&#45;doctor&#45;&gt;memory</title>
<path fill="none" stroke="#666666" d="M97.24,-210.16C104.19,-208.04 111.46,-205.89 118.3,-204 213.99,-177.55 327.77,-151.02 386.28,-137.74"/>
<polygon fill="#666666" stroke="#666666" points="386.76,-141.22 395.74,-135.6 385.22,-134.39 386.76,-141.22"/>
</g>
<!-- hex&#45;upgrade -->
<g id="node8" class="node">
<title>hex&#45;upgrade</title>
<path fill="#99ccff" stroke="black" d="M610.68,-240C610.68,-240 557.93,-240 557.93,-240 551.93,-240 545.93,-234 545.93,-228 545.93,-228 545.93,-216 545.93,-216 545.93,-210 551.93,-204 557.93,-204 557.93,-204 610.68,-204 610.68,-204 616.68,-204 622.68,-210 622.68,-216 622.68,-216 622.68,-228 622.68,-228 622.68,-234 616.68,-240 610.68,-240"/>
<text xml:space="preserve" text-anchor="middle" x="584.3" y="-217.55" font-family="Helvetica,sans-Serif" font-size="11.00">hex&#45;upgrade</text>
</g>
<!-- hex&#45;upgrade&#45;&gt;memory -->
<g id="edge11" class="edge">
<title>hex&#45;upgrade&#45;&gt;memory</title>
<path fill="none" stroke="#666666" d="M554.39,-203.7C528.68,-188.81 491.43,-167.26 463.55,-151.13"/>
<polygon fill="#666666" stroke="#666666" points="465.46,-148.19 455.05,-146.21 461.95,-154.25 465.46,-148.19"/>
</g>
<!-- hex&#45;event -->
<g id="node9" class="node">
<title>hex&#45;event</title>
<path fill="#99ccff" stroke="black" d="M475.93,-334C475.93,-334 436.68,-334 436.68,-334 430.68,-334 424.68,-328 424.68,-322 424.68,-322 424.68,-310 424.68,-310 424.68,-304 430.68,-298 436.68,-298 436.68,-298 475.93,-298 475.93,-298 481.93,-298 487.93,-304 487.93,-310 487.93,-310 487.93,-322 487.93,-322 487.93,-328 481.93,-334 475.93,-334"/>
<text xml:space="preserve" text-anchor="middle" x="456.3" y="-311.55" font-family="Helvetica,sans-Serif" font-size="11.00">hex&#45;event</text>
</g>
<!-- hex&#45;sync -->
<g id="node10" class="node">
<title>hex&#45;sync</title>
<path fill="#ff9999" stroke="black" d="M607.43,-428C607.43,-428 553.18,-428 553.18,-428 547.18,-428 541.18,-422 541.18,-416 541.18,-416 541.18,-404 541.18,-404 541.18,-398 547.18,-392 553.18,-392 553.18,-392 607.43,-392 607.43,-392 613.43,-392 619.43,-398 619.43,-404 619.43,-404 619.43,-416 619.43,-416 619.43,-422 613.43,-428 607.43,-428"/>
<text xml:space="preserve" text-anchor="middle" x="580.3" y="-413.05" font-family="Helvetica,sans-Serif" font-size="11.00" fill="#990000">hex&#45;sync</text>
<text xml:space="preserve" text-anchor="middle" x="580.3" y="-401.05" font-family="Helvetica,sans-Serif" font-size="11.00" fill="#990000">⛔ REMOVE</text>
</g>
<!-- hex&#45;create&#45;team -->
<g id="node11" class="node">
<title>hex&#45;create&#45;team</title>
<path fill="#ff9999" stroke="black" d="M614.68,-334C614.68,-334 543.93,-334 543.93,-334 537.93,-334 531.93,-328 531.93,-322 531.93,-322 531.93,-310 531.93,-310 531.93,-304 537.93,-298 543.93,-298 543.93,-298 614.68,-298 614.68,-298 620.68,-298 626.68,-304 626.68,-310 626.68,-310 626.68,-322 626.68,-322 626.68,-328 620.68,-334 614.68,-334"/>
<text xml:space="preserve" text-anchor="middle" x="579.3" y="-319.05" font-family="Helvetica,sans-Serif" font-size="11.00" fill="#990000">hex&#45;create&#45;team</text>
<text xml:space="preserve" text-anchor="middle" x="579.3" y="-307.05" font-family="Helvetica,sans-Serif" font-size="11.00" fill="#990000">⛔ REMOVE</text>
</g>
<!-- hex&#45;sync&#45;&gt;hex&#45;create&#45;team -->
<g id="edge15" class="edge">
<title>hex&#45;sync&#45;&gt;hex&#45;create&#45;team</title>
<path fill="none" stroke="#cc0000" stroke-dasharray="5,2" d="M567.19,-391.7C563.68,-378.72 562.77,-360.66 564.56,-345.56"/>
<polygon fill="#cc0000" stroke="#cc0000" points="568.01,-346.18 566.32,-335.72 561.12,-344.95 568.01,-346.18"/>
</g>
<!-- hex&#45;connect&#45;team -->
<g id="node12" class="node">
<title>hex&#45;connect&#45;team</title>
<path fill="#ff9999" stroke="black" d="M760.43,-334C760.43,-334 682.18,-334 682.18,-334 676.18,-334 670.18,-328 670.18,-322 670.18,-322 670.18,-310 670.18,-310 670.18,-304 676.18,-298 682.18,-298 682.18,-298 760.43,-298 760.43,-298 766.43,-298 772.43,-304 772.43,-310 772.43,-310 772.43,-322 772.43,-322 772.43,-328 766.43,-334 760.43,-334"/>
<text xml:space="preserve" text-anchor="middle" x="721.3" y="-319.05" font-family="Helvetica,sans-Serif" font-size="11.00" fill="#990000">hex&#45;connect&#45;team</text>
<text xml:space="preserve" text-anchor="middle" x="721.3" y="-307.05" font-family="Helvetica,sans-Serif" font-size="11.00" fill="#990000">⛔ REMOVE</text>
</g>
<!-- hex&#45;sync&#45;&gt;hex&#45;connect&#45;team -->
<g id="edge14" class="edge">
<title>hex&#45;sync&#45;&gt;hex&#45;connect&#45;team</title>
<path fill="none" stroke="#cc0000" stroke-dasharray="5,2" d="M593.89,-391.7C612.48,-377.09 644.29,-356.07 671.8,-340.04"/>
<polygon fill="#cc0000" stroke="#cc0000" points="673.45,-343.13 680.4,-335.13 669.98,-337.05 673.45,-343.13"/>
</g>
<!-- hex&#45;create&#45;team&#45;&gt;hex&#45;sync -->
<g id="edge16" class="edge">
<title>hex&#45;create&#45;team&#45;&gt;hex&#45;sync</title>
<path fill="none" stroke="#cc0000" stroke-dasharray="5,2" d="M592.4,-334.23C595.95,-347.31 596.85,-365.59 594.99,-380.8"/>
<polygon fill="#cc0000" stroke="#cc0000" points="591.63,-379.74 593.31,-390.21 598.52,-380.98 591.63,-379.74"/>
</g>
<!-- hex&#45;connect&#45;team&#45;&gt;hex&#45;sync -->
<g id="edge17" class="edge">
<title>hex&#45;connect&#45;team&#45;&gt;hex&#45;sync</title>
<path fill="none" stroke="#cc0000" stroke-dasharray="5,2" d="M707.81,-334.23C689.21,-348.85 657.27,-369.96 629.68,-386.03"/>
<polygon fill="#cc0000" stroke="#cc0000" points="628.02,-382.95 621.06,-390.95 631.48,-389.03 628.02,-382.95"/>
</g>
<!-- hex&#45;decide -->
<g id="node14" class="node">
<title>hex&#45;decide</title>
<path fill="#d4c5f9" stroke="black" d="M722.55,-240C722.55,-240 678.05,-240 678.05,-240 672.05,-240 666.05,-234 666.05,-228 666.05,-228 666.05,-216 666.05,-216 666.05,-210 672.05,-204 678.05,-204 678.05,-204 722.55,-204 722.55,-204 728.55,-204 734.55,-210 734.55,-216 734.55,-216 734.55,-228 734.55,-228 734.55,-234 728.55,-240 722.55,-240"/>
<text xml:space="preserve" text-anchor="middle" x="700.3" y="-217.55" font-family="Helvetica,sans-Serif" font-size="11.00">hex&#45;decide</text>
</g>
<!-- hex&#45;decide&#45;&gt;memory -->
<g id="edge10" class="edge">
<title>hex&#45;decide&#45;&gt;memory</title>
<path fill="none" stroke="#666666" d="M665.75,-209.44C614.44,-192.28 518.37,-160.14 464.5,-142.11"/>
<polygon fill="#666666" stroke="#666666" points="465.7,-138.83 455.11,-138.97 463.48,-145.46 465.7,-138.83"/>
</g>
<!-- hex&#45;context&#45;sync -->
<g id="node15" class="node">
<title>hex&#45;context&#45;sync</title>
<path fill="#d4c5f9" stroke="black" d="M862.8,-240C862.8,-240 789.8,-240 789.8,-240 783.8,-240 777.8,-234 777.8,-228 777.8,-228 777.8,-216 777.8,-216 777.8,-210 783.8,-204 789.8,-204 789.8,-204 862.8,-204 862.8,-204 868.8,-204 874.8,-210 874.8,-216 874.8,-216 874.8,-228 874.8,-228 874.8,-234 868.8,-240 862.8,-240"/>
<text xml:space="preserve" text-anchor="middle" x="826.3" y="-217.55" font-family="Helvetica,sans-Serif" font-size="11.00">hex&#45;context&#45;sync</text>
</g>
<!-- hex&#45;context&#45;sync&#45;&gt;memory -->
<g id="edge12" class="edge">
<title>hex&#45;context&#45;sync&#45;&gt;memory</title>
<path fill="none" stroke="#666666" d="M777.37,-209.01C770.3,-207.31 763.12,-205.6 756.3,-204 651.22,-179.34 527.03,-151.56 464.89,-137.76"/>
<polygon fill="#666666" stroke="#666666" points="465.67,-134.35 455.15,-135.6 464.15,-141.19 465.67,-134.35"/>
</g>
<!-- boi&#45;delegation -->
<g id="node16" class="node">
<title>boi&#45;delegation</title>
<path fill="#d4c5f9" stroke="black" d="M486.05,-428C486.05,-428 426.55,-428 426.55,-428 420.55,-428 414.55,-422 414.55,-416 414.55,-416 414.55,-404 414.55,-404 414.55,-398 420.55,-392 426.55,-392 426.55,-392 486.05,-392 486.05,-392 492.05,-392 498.05,-398 498.05,-404 498.05,-404 498.05,-416 498.05,-416 498.05,-422 492.05,-428 486.05,-428"/>
<text xml:space="preserve" text-anchor="middle" x="456.3" y="-405.55" font-family="Helvetica,sans-Serif" font-size="11.00">boi&#45;delegation</text>
</g>
<!-- boi&#45;delegation&#45;&gt;hex&#45;event -->
<g id="edge13" class="edge">
<title>boi&#45;delegation&#45;&gt;hex&#45;event</title>
<path fill="none" stroke="#666666" d="M456.3,-391.7C456.3,-378.72 456.3,-360.66 456.3,-345.56"/>
<polygon fill="#666666" stroke="#666666" points="459.8,-345.74 456.3,-335.74 452.8,-345.74 459.8,-345.74"/>
</g>
<!-- landings -->
<g id="node17" class="node">
<title>landings</title>
<path fill="#d4c5f9" stroke="black" d="M706.18,-428C706.18,-428 674.43,-428 674.43,-428 668.43,-428 662.43,-422 662.43,-416 662.43,-416 662.43,-404 662.43,-404 662.43,-398 668.43,-392 674.43,-392 674.43,-392 706.18,-392 706.18,-392 712.18,-392 718.18,-398 718.18,-404 718.18,-404 718.18,-416 718.18,-416 718.18,-422 712.18,-428 706.18,-428"/>
<text xml:space="preserve" text-anchor="middle" x="690.3" y="-405.55" font-family="Helvetica,sans-Serif" font-size="11.00">landings</text>
</g>
<!-- x&#45;twitter -->
<g id="node18" class="node">
<title>x&#45;twitter</title>
<path fill="#e8e8e8" stroke="black" d="M803.43,-428C803.43,-428 773.18,-428 773.18,-428 767.18,-428 761.18,-422 761.18,-416 761.18,-416 761.18,-404 761.18,-404 761.18,-398 767.18,-392 773.18,-392 773.18,-392 803.43,-392 803.43,-392 809.43,-392 815.43,-398 815.43,-404 815.43,-404 815.43,-416 815.43,-416 815.43,-422 809.43,-428 803.43,-428"/>
<text xml:space="preserve" text-anchor="middle" x="788.3" y="-405.55" font-family="Helvetica,sans-Serif" font-size="11.00">x&#45;twitter</text>
</g>
<!-- x&#45;research -->
<g id="node19" class="node">
<title>x&#45;research</title>
<path fill="#e8e8e8" stroke="black" d="M913.8,-428C913.8,-428 870.8,-428 870.8,-428 864.8,-428 858.8,-422 858.8,-416 858.8,-416 858.8,-404 858.8,-404 858.8,-398 864.8,-392 870.8,-392 870.8,-392 913.8,-392 913.8,-392 919.8,-392 925.8,-398 925.8,-404 925.8,-404 925.8,-416 925.8,-416 925.8,-422 919.8,-428 913.8,-428"/>
<text xml:space="preserve" text-anchor="middle" x="892.3" y="-405.55" font-family="Helvetica,sans-Serif" font-size="11.00">x&#45;research</text>
</g>
<!-- imessage -->
<g id="node20" class="node">
<title>imessage</title>
<path fill="#e8e8e8" stroke="black" d="M1018.18,-428C1018.18,-428 980.43,-428 980.43,-428 974.43,-428 968.43,-422 968.43,-416 968.43,-416 968.43,-404 968.43,-404 968.43,-398 974.43,-392 980.43,-392 980.43,-392 1018.18,-392 1018.18,-392 1024.18,-392 1030.18,-398 1030.18,-404 1030.18,-404 1030.18,-416 1030.18,-416 1030.18,-422 1024.18,-428 1018.18,-428"/>
<text xml:space="preserve" text-anchor="middle" x="999.3" y="-405.55" font-family="Helvetica,sans-Serif" font-size="11.00">imessage</text>
</g>
<!-- remodeling -->
<g id="node21" class="node">
<title>remodeling</title>
<path fill="#e8e8e8" stroke="black" d="M1130.93,-428C1130.93,-428 1085.68,-428 1085.68,-428 1079.68,-428 1073.68,-422 1073.68,-416 1073.68,-416 1073.68,-404 1073.68,-404 1073.68,-398 1079.68,-392 1085.68,-392 1085.68,-392 1130.93,-392 1130.93,-392 1136.93,-392 1142.93,-398 1142.93,-404 1142.93,-404 1142.93,-416 1142.93,-416 1142.93,-422 1136.93,-428 1130.93,-428"/>
<text xml:space="preserve" text-anchor="middle" x="1108.3" y="-405.55" font-family="Helvetica,sans-Serif" font-size="11.00">remodeling</text>
</g>
<!-- vibe&#45;to&#45;prod -->
<g id="node22" class="node">
<title>vibe&#45;to&#45;prod</title>
<path fill="#e8e8e8" stroke="black" d="M1248.18,-428C1248.18,-428 1198.43,-428 1198.43,-428 1192.43,-428 1186.43,-422 1186.43,-416 1186.43,-416 1186.43,-404 1186.43,-404 1186.43,-398 1192.43,-392 1198.43,-392 1198.43,-392 1248.18,-392 1248.18,-392 1254.18,-392 1260.18,-398 1260.18,-404 1260.18,-404 1260.18,-416 1260.18,-416 1260.18,-422 1254.18,-428 1248.18,-428"/>
<text xml:space="preserve" text-anchor="middle" x="1223.3" y="-405.55" font-family="Helvetica,sans-Serif" font-size="11.00">vibe&#45;to&#45;prod</text>
</g>
<!-- conjecture&#45;criticism -->
<g id="node23" class="node">
<title>conjecture&#45;criticism</title>
<path fill="#e8e8e8" stroke="black" d="M1399.05,-428C1399.05,-428 1315.55,-428 1315.55,-428 1309.55,-428 1303.55,-422 1303.55,-416 1303.55,-416 1303.55,-404 1303.55,-404 1303.55,-398 1309.55,-392 1315.55,-392 1315.55,-392 1399.05,-392 1399.05,-392 1405.05,-392 1411.05,-398 1411.05,-404 1411.05,-404 1411.05,-416 1411.05,-416 1411.05,-422 1405.05,-428 1399.05,-428"/>
<text xml:space="preserve" text-anchor="middle" x="1357.3" y="-405.55" font-family="Helvetica,sans-Serif" font-size="11.00">conjecture&#45;criticism</text>
</g>
<!-- hermes&#45;memory&#45;migration -->
<g id="node24" class="node">
<title>hermes&#45;memory&#45;migration</title>
<path fill="#e8e8e8" stroke="black" d="M1584.68,-428C1584.68,-428 1465.93,-428 1465.93,-428 1459.93,-428 1453.93,-422 1453.93,-416 1453.93,-416 1453.93,-404 1453.93,-404 1453.93,-398 1459.93,-392 1465.93,-392 1465.93,-392 1584.68,-392 1584.68,-392 1590.68,-392 1596.68,-398 1596.68,-404 1596.68,-404 1596.68,-416 1596.68,-416 1596.68,-422 1590.68,-428 1584.68,-428"/>
<text xml:space="preserve" text-anchor="middle" x="1525.3" y="-405.55" font-family="Helvetica,sans-Serif" font-size="11.00">hermes&#45;memory&#45;migration</text>
</g>
<!-- hex&#45;consolidate -->
<g id="node25" class="node">
<title>hex&#45;consolidate</title>
<path fill="#e8e8e8" stroke="black" d="M1718.8,-428C1718.8,-428 1651.8,-428 1651.8,-428 1645.8,-428 1639.8,-422 1639.8,-416 1639.8,-416 1639.8,-404 1639.8,-404 1639.8,-398 1645.8,-392 1651.8,-392 1651.8,-392 1718.8,-392 1718.8,-392 1724.8,-392 1730.8,-398 1730.8,-404 1730.8,-404 1730.8,-416 1730.8,-416 1730.8,-422 1724.8,-428 1718.8,-428"/>
<text xml:space="preserve" text-anchor="middle" x="1685.3" y="-405.55" font-family="Helvetica,sans-Serif" font-size="11.00">hex&#45;consolidate</text>
</g>
<!-- context&#45;save -->
<g id="node26" class="node">
<title>context&#45;save</title>
<path fill="#e8e8e8" stroke="black" d="M1838.68,-428C1838.68,-428 1785.93,-428 1785.93,-428 1779.93,-428 1773.93,-422 1773.93,-416 1773.93,-416 1773.93,-404 1773.93,-404 1773.93,-398 1779.93,-392 1785.93,-392 1785.93,-392 1838.68,-392 1838.68,-392 1844.68,-392 1850.68,-398 1850.68,-404 1850.68,-404 1850.68,-416 1850.68,-416 1850.68,-422 1844.68,-428 1838.68,-428"/>
<text xml:space="preserve" text-anchor="middle" x="1812.3" y="-405.55" font-family="Helvetica,sans-Serif" font-size="11.00">context&#45;save</text>
</g>
<!-- hex&#45;switch -->
<g id="node27" class="node">
<title>hex&#45;switch</title>
<path fill="#e8e8e8" stroke="black" d="M1948.8,-428C1948.8,-428 1905.8,-428 1905.8,-428 1899.8,-428 1893.8,-422 1893.8,-416 1893.8,-416 1893.8,-404 1893.8,-404 1893.8,-398 1899.8,-392 1905.8,-392 1905.8,-392 1948.8,-392 1948.8,-392 1954.8,-392 1960.8,-398 1960.8,-404 1960.8,-404 1960.8,-416 1960.8,-416 1960.8,-422 1954.8,-428 1948.8,-428"/>
<text xml:space="preserve" text-anchor="middle" x="1927.3" y="-405.55" font-family="Helvetica,sans-Serif" font-size="11.00">hex&#45;switch</text>
</g>
<!-- hex&#45;scout -->
<g id="node28" class="node">
<title>hex&#45;scout</title>
<path fill="#e8e8e8" stroke="black" d="M2054.55,-428C2054.55,-428 2016.05,-428 2016.05,-428 2010.05,-428 2004.05,-422 2004.05,-416 2004.05,-416 2004.05,-404 2004.05,-404 2004.05,-398 2010.05,-392 2016.05,-392 2016.05,-392 2054.55,-392 2054.55,-392 2060.55,-392 2066.55,-398 2066.55,-404 2066.55,-404 2066.55,-416 2066.55,-416 2066.55,-422 2060.55,-428 2054.55,-428"/>
<text xml:space="preserve" text-anchor="middle" x="2035.3" y="-405.55" font-family="Helvetica,sans-Serif" font-size="11.00">hex&#45;scout</text>
</g>
<!-- hex&#45;bookmarks -->
<g id="node29" class="node">
<title>hex&#45;bookmarks</title>
<path fill="#e8e8e8" stroke="black" d="M2187.05,-428C2187.05,-428 2121.55,-428 2121.55,-428 2115.55,-428 2109.55,-422 2109.55,-416 2109.55,-416 2109.55,-404 2109.55,-404 2109.55,-398 2115.55,-392 2121.55,-392 2121.55,-392 2187.05,-392 2187.05,-392 2193.05,-392 2199.05,-398 2199.05,-404 2199.05,-404 2199.05,-416 2199.05,-416 2199.05,-422 2193.05,-428 2187.05,-428"/>
<text xml:space="preserve" text-anchor="middle" x="2154.3" y="-405.55" font-family="Helvetica,sans-Serif" font-size="11.00">hex&#45;bookmarks</text>
</g>
<!-- hex&#45;ui -->
<g id="node30" class="node">
<title>hex&#45;ui</title>
<path fill="#e8e8e8" stroke="black" d="M2284.3,-428C2284.3,-428 2254.3,-428 2254.3,-428 2248.3,-428 2242.3,-422 2242.3,-416 2242.3,-416 2242.3,-404 2242.3,-404 2242.3,-398 2248.3,-392 2254.3,-392 2254.3,-392 2284.3,-392 2284.3,-392 2290.3,-392 2296.3,-398 2296.3,-404 2296.3,-404 2296.3,-416 2296.3,-416 2296.3,-422 2290.3,-428 2284.3,-428"/>
<text xml:space="preserve" text-anchor="middle" x="2269.3" y="-405.55" font-family="Helvetica,sans-Serif" font-size="11.00">hex&#45;ui</text>
</g>
<!-- leg1 -->
<g id="node31" class="node">
<title>leg1</title>
<path fill="#b8e6c8" stroke="black" d="M2457.1,-428C2457.1,-428 2351.5,-428 2351.5,-428 2345.5,-428 2339.5,-422 2339.5,-416 2339.5,-416 2339.5,-404 2339.5,-404 2339.5,-398 2345.5,-392 2351.5,-392 2351.5,-392 2457.1,-392 2457.1,-392 2463.1,-392 2469.1,-398 2469.1,-404 2469.1,-404 2469.1,-416 2469.1,-416 2469.1,-422 2463.1,-428 2457.1,-428"/>
<text xml:space="preserve" text-anchor="middle" x="2404.3" y="-406.32" font-family="Helvetica,sans-Serif" font-size="9.00">Session lifecycle</text>
</g>
<!-- leg2 -->
<g id="node32" class="node">
<title>leg2</title>
<path fill="#99ccff" stroke="black" d="M2457.1,-334C2457.1,-334 2351.5,-334 2351.5,-334 2345.5,-334 2339.5,-328 2339.5,-322 2339.5,-322 2339.5,-310 2339.5,-310 2339.5,-304 2345.5,-298 2351.5,-298 2351.5,-298 2457.1,-298 2457.1,-298 2463.1,-298 2469.1,-304 2469.1,-310 2469.1,-310 2469.1,-322 2469.1,-322 2469.1,-328 2463.1,-334 2457.1,-334"/>
<text xml:space="preserve" text-anchor="middle" x="2404.3" y="-312.32" font-family="Helvetica,sans-Serif" font-size="9.00">Core infrastructure</text>
</g>
<!-- leg1&#45;&gt;leg2 -->
<!-- leg3 -->
<g id="node33" class="node">
<title>leg3</title>
<path fill="#d4c5f9" stroke="black" d="M2457.1,-240C2457.1,-240 2351.5,-240 2351.5,-240 2345.5,-240 2339.5,-234 2339.5,-228 2339.5,-228 2339.5,-216 2339.5,-216 2339.5,-210 2345.5,-204 2351.5,-204 2351.5,-204 2457.1,-204 2457.1,-204 2463.1,-204 2469.1,-210 2469.1,-216 2469.1,-216 2469.1,-228 2469.1,-228 2469.1,-234 2463.1,-240 2457.1,-240"/>
<text xml:space="preserve" text-anchor="middle" x="2404.3" y="-218.32" font-family="Helvetica,sans-Serif" font-size="9.00">Connected</text>
</g>
<!-- leg2&#45;&gt;leg3 -->
<!-- leg4 -->
<g id="node34" class="node">
<title>leg4</title>
<path fill="#e8e8e8" stroke="black" d="M2457.1,-146C2457.1,-146 2351.5,-146 2351.5,-146 2345.5,-146 2339.5,-140 2339.5,-134 2339.5,-134 2339.5,-122 2339.5,-122 2339.5,-116 2345.5,-110 2351.5,-110 2351.5,-110 2457.1,-110 2457.1,-110 2463.1,-110 2469.1,-116 2469.1,-122 2469.1,-122 2469.1,-134 2469.1,-134 2469.1,-140 2463.1,-146 2457.1,-146"/>
<text xml:space="preserve" text-anchor="middle" x="2404.3" y="-124.33" font-family="Helvetica,sans-Serif" font-size="9.00">Standalone</text>
</g>
<!-- leg3&#45;&gt;leg4 -->
<!-- leg5 -->
<g id="node35" class="node">
<title>leg5</title>
<path fill="#ff9999" stroke="black" d="M2457.1,-52C2457.1,-52 2351.5,-52 2351.5,-52 2345.5,-52 2339.5,-46 2339.5,-40 2339.5,-40 2339.5,-28 2339.5,-28 2339.5,-22 2345.5,-16 2351.5,-16 2351.5,-16 2457.1,-16 2457.1,-16 2463.1,-16 2469.1,-22 2469.1,-28 2469.1,-28 2469.1,-40 2469.1,-40 2469.1,-46 2463.1,-52 2457.1,-52"/>
<text xml:space="preserve" text-anchor="middle" x="2404.3" y="-31.45" font-family="Helvetica,sans-Serif" font-size="9.00" fill="#990000">⛔ Marked for removal</text>
</g>
<!-- leg4&#45;&gt;leg5 -->
</g>
</svg>
